<svg width="100" height="100" viewBox="0 0 100 100" fill="none" xmlns="http://www.w3.org/2000/svg">
<mask id="mask0_131_41" style="mask-type:luminance" maskUnits="userSpaceOnUse" x="0" y="0" width="100" height="100">
<path fill-rule="evenodd" clip-rule="evenodd" d="M25.2692 14.684H17.4567C16.1617 14.684 15.1129 13.4334 15.1129 11.8889C15.1129 10.344 16.1617 9.09347 17.4567 9.09347H25.2692C26.5629 9.09347 27.6127 10.344 27.6127 11.8889C27.6127 13.4334 26.5637 14.684 25.2692 14.684ZM62.7876 61.1019L49.9989 69.9084L37.2106 61.1019L49.9989 52.2958L62.7876 61.1019ZM52.3428 92.3642V74.7494L65.1324 65.9439V83.5575L52.3428 92.3642ZM34.8668 83.5565V65.9439L47.6554 74.7504V92.3642L34.8668 83.5565ZM95.4096 100H4.58805C3.29424 100 2.24438 98.7495 2.24438 97.2046C2.24438 95.6607 3.29424 94.4095 4.58805 94.4095H7.18322V39.385C7.18322 37.8405 8.23174 36.5896 9.52723 36.5896C10.8216 36.5896 11.8709 37.8405 11.8709 39.385V94.4095H41.2523L31.351 87.5917C30.6256 87.0912 30.1789 86.17 30.1789 85.1711V61.1616C30.17 60.6667 30.2703 60.1627 30.4927 59.7032C30.7161 59.2434 31.032 58.8872 31.3964 58.6499L48.8273 46.647C49.5522 46.1471 50.4446 46.1471 51.1712 46.647L68.6155 58.6587C68.9117 58.855 69.1749 59.1294 69.3816 59.4755L69.4038 59.5124L69.4239 59.5476L69.4253 59.5498L69.4428 59.5819L69.4459 59.5875L69.4659 59.6265L69.4745 59.6423L69.4857 59.6642L69.5055 59.7042L69.5239 59.7429L69.5349 59.7675L69.5423 59.7828L69.5594 59.8228L69.5761 59.8631L69.5899 59.8943L69.5929 59.9041C69.7553 60.3105 69.8281 60.744 69.8187 61.1714V85.1711C69.8187 86.17 69.3722 87.0922 68.6473 87.5917L58.7459 94.4095H88.1276V89.2532C88.1276 87.7083 89.1766 86.4578 90.4711 86.4578C91.7669 86.4578 92.8149 87.7083 92.8149 89.2532V94.4095H95.4096C96.7044 94.4095 97.7534 95.6607 97.7534 97.2046C97.7534 98.7495 96.7044 100 95.4096 100ZM44.3724 29.8043C44.3471 29.7358 44.3196 29.6367 44.3009 29.5099L43.4607 23.7782H56.5331L55.6973 29.4356C55.6717 29.6039 55.633 29.7266 55.5997 29.8043H44.3724ZM4.68768 18.1879H95.3118V5.59048H4.68768V18.1879ZM97.6557 23.7782C98.9501 23.7782 99.9987 22.5273 100 20.9828V2.79504C100 1.25054 98.951 0 97.6557 0H2.34367C1.04902 0 0 1.25054 0 2.79504V20.9828C0 22.5273 1.04902 23.7782 2.34367 23.7782H7.18322V30.0665C7.18322 31.61 8.23174 32.8621 9.52723 32.8621C10.8216 32.8621 11.8709 31.61 11.8709 30.0665V23.7782H38.7023L39.6834 30.4725C40.1147 33.4173 41.9219 35.3951 44.1795 35.3951H47.7411V39.3409C47.7411 40.8854 48.7902 42.1359 50.0855 42.1359C51.3805 42.1359 52.4285 40.8854 52.4285 39.3409V35.3951H55.7607C58.0424 35.3951 59.8727 33.3911 60.3148 30.4066L61.2938 23.7782H88.1276V79.9359C88.1276 81.4798 89.1758 82.7309 90.4711 82.7309C91.7661 82.7309 92.8149 81.4788 92.8149 79.9359V23.7782H97.6557ZM82.5414 14.684H74.7285C73.434 14.684 72.3851 13.4334 72.3851 11.8889C72.3851 10.344 73.434 9.09347 74.7285 9.09347H82.5414C83.8361 9.09347 84.8853 10.344 84.8853 11.8889C84.8853 13.4334 83.8361 14.684 82.5414 14.684Z" fill="white"/>
</mask>
<g mask="url(#mask0_131_41)">
<path d="M0 0V100H100V0H0Z" fill="#39B5D0"/>
</g>
</svg>
